<svg xmlns="http://www.w3.org/2000/svg" width="1050" height="600" style=""><rect id="backgroundrect" width="100%" height="100%" x="0" y="0" fill="none" stroke="none"/>
  
<g class="currentLayer" style=""><title>Layer 1</title><path id="Path" fill="#ffffff" stroke="#ffffff" stroke-width="1" d="M590.9537145883941,576.1279227217711 C590.9537145883941,579.157136791026 590.2390750259988,581.8806503578791 588.8097959012089,584.2984634223303 C587.3805167764187,586.7440674415453 584.78399303305,588.7172252297754 581.0202246711023,590.2457277417848 C577.2564563091552,591.7742302537943 572.2539793723895,592.969241308638 566.0366151795523,593.8585518610798 C559.7954296679687,594.7756533682855 551.8629305253835,595.2480995992702 542.2391177517962,595.2480995992702 C532.8773394844209,595.2480995992702 525.0877682543145,594.7756533682855 518.8704040614776,593.8585518610798 C512.6292185498937,592.969241308638 507.6982055693676,591.7742302537943 504.05354380115284,590.2457277417848 C500.4327033516845,588.7450161845394 497.83617960831566,586.771858396309 496.26397257104645,584.354045331858 C494.71558685252376,581.9084413126429 493.92948333388915,579.2127187005536 493.92948333388915,576.1835046312985 C493.92948333388915,576.1835046312985 493.92948333388915,97.79000932713068 493.92948333388915,97.79000932713068 C493.92948333388915,97.79000932713068 493.1433798152548,97.79000932713068 493.1433798152548,97.79000932713068 C493.1433798152548,97.79000932713068 347.0472319429547,575.6554764907863 347.0472319429547,575.6554764907863 C346.02291523685517,579.6017920672471 344.3316016058534,582.8811247293762 341.9971123686962,585.4656835224102 C339.66262313153914,588.0502423154442 336.4705664195077,590.1067729679658 332.4209422326022,591.6352754799751 C328.41896068318977,593.1359870372208 323.27355583394535,594.108670453954 317.00854900361514,594.5533257301751 C310.79118481077796,594.997981006396 303.263648086883,595.2480995992702 294.4259388319307,595.2480995992702 C285.5882295769784,595.2480995992702 278.06069285308354,594.8590262325769 271.84332866024636,594.108670453954 C265.60214314866266,593.3583146753313 260.45673829941825,592.1633036204876 256.4309354312593,590.4680553798954 C252.40513256310032,588.8005980940669 249.21307585106894,586.7440674415453 246.85476529516515,584.2984634223303 C244.52027605800802,581.8806503578791 242.97189033948524,578.9903910624431 242.20960813959718,575.6554764907863 C242.20960813959718,575.6554764907863 101.16357984155593,97.79000932713068 101.16357984155593,97.79000932713068 C101.16357984155593,97.79000932713068 100.40129764166785,97.79000932713068 100.40129764166785,97.79000932713068 C100.40129764166785,97.79000932713068 100.40129764166785,576.1835046312985 100.40129764166785,576.1835046312985 C100.40129764166785,579.2127187005536 99.66283676052632,581.9084413126429 98.23355763573612,584.354045331858 C96.82809982969248,586.771858396309 94.16011213008414,588.7450161845394 90.27723717440428,590.2457277417848 C86.37054089997785,591.7742302537943 81.36806396321224,592.969241308638 75.26980636410767,593.8585518610798 C69.17154876500307,594.7756533682855 61.28669225991065,595.2480995992702 51.662879486323675,595.2480995992702 C42.30110121894821,595.2480995992702 34.51152998884183,594.7756533682855 28.29416579600469,593.8585518610798 C22.052980284421157,592.969241308638 17.074324666402056,591.7742302537943 13.286734985708165,590.2457277417848 C9.522966623760686,588.7172252297754 6.902621561645505,586.7440674415453 5.47334243685529,584.2984634223303 C4.0678846308117285,581.8806503578791 3.3532450684166215,579.157136791026 3.3532450684166215,576.1279227217711 C3.3532450684166215,576.1279227217711 3.3532450684166215,51.1012053239354 3.3532450684166215,51.1012053239354 C3.3532450684166215,35.62164352049514 6.85497892415244,23.78269679111352 13.858446635624231,15.584365135790533 C20.861914347096032,7.413824435231334 30.22369261447134,3.3007631301879883 41.91996011900416,3.3007631301879883 C41.91996011900416,3.3007631301879883 108.95315107166223,3.3007631301879883 108.95315107166223,3.3007631301879883 C120.91145308240648,3.3007631301879883 131.17844146214912,4.440192275504076 139.7302948921434,6.719050566136166 C148.30596964088437,8.997908856768424 155.71439977104663,12.777478704646077 161.95558528263032,18.11334201929695 C168.17294947546745,23.393623424420166 173.36599696220497,30.396944024899497 177.51090642409648,39.039930956443406 C181.67963720473446,47.71070884275101 185.32429897294918,58.382435472052755 188.46871304748757,71.1384837086401 C188.46871304748757,71.1384837086401 297.5465315877225,422.19382428504605 297.5465315877225,422.19382428504605 C297.5465315877225,422.19382428504605 299.1187386249918,422.19382428504605 299.1187386249918,422.19382428504605 C299.1187386249918,422.19382428504605 412.12707475839966,72.02779426108185 412.12707475839966,72.02779426108185 C415.48588070165636,59.29953697925847 419.17818510736436,48.54443748566528 423.2039879755232,39.734704825538564 C427.2536121624287,30.952763120175558 431.9225906367433,23.810487745877303 437.2347447172132,18.33566965740741 C442.5707201164299,12.860851568937436 448.88336958425293,8.997908856768424 456.14887180193625,6.719050566136166 C463.4143740196196,4.440192275504076 471.8471208558815,3.3007631301879883 481.4709336294684,3.3007631301879883 C481.4709336294684,3.3007631301879883 550.4336514005935,3.3007631301879883 550.4336514005935,3.3007631301879883 C557.4371191120649,3.3007631301879883 563.4877340736767,4.384610365976419 568.5616749666817,6.524513882789576 C573.6117945409403,8.636626444838862 577.7805253215782,11.74921337838522 581.0202246711023,15.862274683428648 C584.2837453393731,19.919754078944337 586.7373411702631,24.94991689119339 588.4286548012647,30.8693902558842 C590.1199684322662,36.78886362057511 590.9537145883941,43.542065628180005 590.9537145883941,51.1012053239354 C590.9537145883941,51.1012053239354 590.9537145883941,576.1279227217711 590.9537145883941,576.1279227217711 zM1046.5364356152545,181.69090175906297 C1046.5364356152545,214.65097410893782 1042.1294916471516,243.8592675656986 1033.2917823921987,269.26020021981776 C1024.4540731372465,294.6889238287011 1011.5905610141352,316.0879589968322 994.7012460228649,333.4850966789751 C977.8119310315949,350.8822343611181 957.1112050408843,364.13851978345383 932.5752467319863,373.22616199121876 C908.0392884230891,382.2860132442197 879.1440287835813,386.81593887072006 845.8894678134639,386.81593887072006 C845.8894678134639,386.81593887072006 803.7971975883942,386.81593887072006 803.7971975883942,386.81593887072006 C803.7971975883942,386.81593887072006 803.7971975883942,576.0167589027159 803.7971975883942,576.0167589027159 C803.7971975883942,579.0459729719709 802.9396301135197,581.7972774935878 801.2721378012644,584.2706724675666 C799.5570028515164,586.6884855320177 796.7699085581759,588.6894342750116 792.8870336024959,590.2179367870211 C788.9803373280693,591.7464392990305 783.7872898413319,592.969241308638 777.2840698235367,593.8585518610798 C770.8046711244881,594.7756533682855 762.4910308819586,595.2480995992702 752.3431490959485,595.2480995992702 C742.4811231348966,595.2480995992702 734.2389468486065,594.7756533682855 727.5927989183325,593.8585518610798 C720.9942936255513,592.969241308638 715.7536035013206,591.7742302537943 711.8469072268944,590.2457277417848 C707.9640322712143,588.7172252297754 705.2245806153667,586.7440674415453 703.6761948968438,584.2984634223303 C702.1039878595747,581.8806503578791 701.3178843409399,579.157136791026 701.3178843409399,576.1279227217711 C701.3178843409399,576.1279227217711 701.3178843409399,46.12662442121408 701.3178843409399,46.12662442121408 C701.3178843409399,31.842073672617484 704.4861197342249,21.14255608855187 710.846411839541,14.028071669017397 C717.2305252636038,6.885796294719051 725.6156294623726,3.3007631301879883 736.0017244358478,3.3007631301879883 C736.0017244358478,3.3007631301879883 854.8701049808952,3.3007631301879883 854.8701049808952,3.3007631301879883 C866.7807643541463,3.3007631301879883 878.1435333962282,3.8565822254640563 888.9107694696473,4.912638506488782 C899.7018268618133,5.940903832749556 912.6368029411636,8.219762123381813 927.6918763889536,11.721422423621433 C942.7469498367428,15.195291769097267 958.0164151532513,21.615002319536572 973.476451019731,31.008345029703214 C988.9364868862112,40.373896785106076 1002.1096761530274,52.268425424015355 1013.0198401389251,66.66413999166727 C1023.9300041248234,81.00427264979146 1032.243644367353,97.81780028189446 1037.9607608665135,117.02135002368489 C1043.6778773656745,136.2248997654753 1046.5364356152545,157.79068066218926 1046.5364356152545,181.69090175906297 zM939.4357865309789,190.27830678107932 C939.4357865309789,169.6018364368071 936.291372456441,152.5937721213574 930.0501869448575,139.22632287996643 C923.8090014332736,125.83108268381159 916.1385367968996,115.96529374266025 907.0387930357355,109.60116510174852 C897.9628705933183,103.2092455060729 888.4105217759708,99.179557065321 878.429389221186,97.53989073425643 C868.4244353476552,95.84464249366427 858.1098043304197,95.01091385075001 847.4616748507328,95.01091385075001 C847.4616748507328,95.01091385075001 803.7971975883942,95.01091385075001 803.7971975883942,95.01091385075001 C803.7971975883942,95.01091385075001 803.7971975883942,295.10578815015805 803.7971975883942,295.10578815015805 C803.7971975883942,295.10578815015805 849.7961640878902,295.10578815015805 849.7961640878902,295.10578815015805 C866.137588747991,295.10578815015805 879.83484702723,292.52122935712407 890.887938925607,287.3799027258198 C901.9172095052375,282.21078513975186 910.9693106289087,274.98513690116204 917.9965996591268,265.70295801005057 C925.0000673705987,256.44857007370297 930.3360427698154,245.35997912294417 933.9568832192836,232.43718515777394 C937.6015449874985,219.54218214736775 939.4357865309789,205.47995903688152 939.4357865309789,190.27830678107932 z" class="" opacity="1" fill-opacity="1" stroke-opacity="1"/></g></svg>